#!OML:ASF E:\Style4\Style4.ASF
:FULLY-SPECIFIED
:DEGREES
1677
root -0.492988 17.1112 -2.95615 2.59886 0.633595 2.43353
lowerback 15.4709 2.05179 -0.498794
upperback 7.30787 2.62994 0.19698
thorax -0.959418 1.29839 0.0687071
lowerneck 1.21348 -4.97719 -6.72744
upperneck 1.73934 -6.75281 5.04744
head 0.771601 -3.39855 2.7273
rclavicle -1.74931e-014 7.95139e-015
rhumerus -345.036 22.2737 -432.254
rradius 93.8531
rwrist -30.4949
rhand -27.5058 20.1036
rfingers 7.12502
rthumb -0.90864 -9.87421
lclavicle -1.74931e-014 7.95139e-015
lhumerus 12.5791 -29.7273 77.3765
lradius 97.1061
lwrist 35.7348
lhand -19.442 28.7991
lfingers 7.12502
lthumb 6.87851 58.6674
rfemur -29.2436 -1.00208 17.0978
rtibia 49.5364
rfoot -21.6492 -11.9769
rtoes -9.09164
lfemur -26.3456 2.38388 -20.5826
ltibia 47.1004
lfoot -22.1652 7.32121
ltoes -15.1681
1678
root -0.489815 17.1055 -2.95723 2.58583 0.506254 2.46706
lowerback 15.4773 2.05915 -0.567045
upperback 7.29755 2.62967 0.194777
thorax -0.976543 1.29656 0.10431
lowerneck 1.09456 -4.99983 -6.74511
upperneck 1.84237 -6.77746 5.00272
head 0.825553 -3.41026 2.71037
rclavicle 2.74323e-014 -8.74653e-015
rhumerus -345.022 22.242 -432.204
rradius 93.7949
rwrist -30.1203
rhand -27.1743 20.4034
rfingers 7.12502
rthumb -0.588456 -9.57553
lclavicle 2.74323e-014 -8.74653e-015
lhumerus 12.5524 -29.7042 77.3687
lradius 97.1591
lwrist 35.489
lhand -19.2875 28.9528
lfingers 7.12502
lthumb 7.02759 58.8161
rfemur -29.3076 -0.96753 17.0596
rtibia 49.6093
rfoot -21.6498 -11.9447
rtoes -9.59569
lfemur -26.3621 2.31208 -20.6256
ltibia 47.1833
lfoot -22.3078 7.40351
ltoes -14.7509
1679
root -0.485965 17.1014 -2.95714 2.55694 0.377359 2.56399
lowerback 15.4841 2.07064 -0.666201
upperback 7.29512 2.62983 0.159024
thorax -0.985193 1.29485 0.12239
lowerneck 0.995167 -5.02634 -6.75425
upperneck 1.93413 -6.80835 4.97575
head 0.873342 -3.42517 2.69845
rclavicle -2.16675e-014 1.23246e-014
rhumerus -345.044 22.2582 -432.174
rradius 93.7956
rwrist -29.9258
rhand -26.9454 20.7998
rfingers 7.12502
rthumb -0.367349 -9.17962
lclavicle -2.16675e-014 1.23246e-014
lhumerus 12.5762 -29.6681 77.3404
lradius 97.1571
lwrist 35.1965
lhand -18.8079 29.0356
lfingers 7.12502
lthumb 7.49053 58.883
rfemur -29.3409 -0.929664 16.9402
rtibia 49.6719
rfoot -21.6441 -11.9066
rtoes -9.70261
lfemur -26.3493 2.30938 -20.7483
ltibia 47.2581
lfoot -22.3887 7.49997
ltoes -14.7489
1680
root -0.482425 17.0987 -2.95761 2.53315 0.294293 2.53012
lowerback 15.4949 2.0423 -0.670819
upperback 7.29303 2.59221 0.184355
thorax -0.994247 1.27541 0.156998
lowerneck 1.06112 -4.95331 -6.84555
upperneck 1.77895 -6.71355 5.0407
head 0.812592 -3.37828 2.74246
rclavicle -2.98177e-015 1.27222e-014
rhumerus -345.029 22.3839 -432.087
rradius 93.86
rwrist -29.8232
rhand -26.831 21.0229
rfingers 7.12502
rthumb -0.256839 -8.9567
lclavicle -2.98177e-015 1.27222e-014
lhumerus 12.5599 -29.6718 77.3306
lradius 97.2516
lwrist 35.273
lhand -19.0925 29.3995
lfingers 7.12502
lthumb 7.21584 59.2565
rfemur -29.3505 -0.909286 16.971
rtibia 49.7161
rfoot -21.6154 -11.927
rtoes -9.87191
lfemur -26.3514 2.32819 -20.7223
ltibia 47.3328
lfoot -22.4518 7.54775
ltoes -14.5672
1681
root -0.4799 17.0962 -2.95844 2.50768 0.211021 2.43331
lowerback 15.4797 2.00588 -0.658801
upperback 7.30393 2.54762 0.253692
thorax -0.977072 1.25209 0.230513
lowerneck 1.10938 -4.86627 -6.94803
upperneck 1.62048 -6.59851 5.07485
head 0.751544 -3.32117 2.77811
rclavicle -2.18663e-014 2.3059e-014
rhumerus -344.992 22.6066 -431.943
rradius 93.991
rwrist -29.8881
rhand -26.976 20.9334
rfingers 7.12502
rthumb -0.396925 -9.046
lclavicle -2.18663e-014 2.3059e-014
lhumerus 12.618 -29.6383 77.3331
lradius 97.2023
lwrist 35.388
lhand -19.5805 29.3847
lfingers 7.12502
lthumb 6.74479 59.2572
rfemur -29.359 -0.874549 17.0722
rtibia 49.7508
rfoot -21.6645 -11.8767
rtoes -9.79872
lfemur -26.3606 2.3756 -20.6217
ltibia 47.425
lfoot -22.5505 7.62803
ltoes -14.8373
1682
root -0.478155 17.0925 -2.96009 2.47342 0.119805 2.40163
lowerback 15.4273 2.00642 -0.672633
upperback 7.35101 2.5475 0.287563
thorax -0.901884 1.25085 0.276549
lowerneck 1.11531 -4.87054 -6.99018
upperneck 1.49419 -6.60236 5.07368
head 0.712059 -3.32277 2.78722
rclavicle -1.82882e-014 1.07344e-014
rhumerus -345.138 22.7989 -431.871
rradius 94.2785
rwrist -30.0215
rhand -27.511 20.7356
rfingers 7.12502
rthumb -0.913644 -9.24223
lclavicle -1.82882e-014 1.07344e-014
lhumerus 12.7492 -29.5153 77.308
lradius 97.0463
lwrist 34.8205
lhand -18.9096 29.1391
lfingers 7.12502
lthumb 7.39242 58.99
rfemur -29.3623 -0.843124 17.1052
rtibia 49.7713
rfoot -21.6693 -11.7949
rtoes -9.69237
lfemur -26.3826 2.40744 -20.5887
ltibia 47.5475
lfoot -22.6675 7.73927
ltoes -15.251
1683
root -0.4766 17.0878 -2.96303 2.3971 0.0674861 2.3728
lowerback 15.4502 2.00639 -0.630533
upperback 7.39617 2.55276 0.286775
thorax -0.864474 1.25425 0.251482
lowerneck 1.11539 -4.87347 -7.02053
upperneck 1.39185 -6.60525 5.12342
head 0.682779 -3.32375 2.81082
rclavicle 2.50469e-014 -8.74653e-015
rhumerus -345.536 22.8433 -431.985
rradius 94.5801
rwrist -29.7176
rhand -27.7388 20.8613
rfingers 7.12502
rthumb -1.13365 -9.11547
lclavicle 2.50469e-014 -8.74653e-015
lhumerus 12.842 -29.4315 77.2392
lradius 96.9965
lwrist 34.0932
lhand -17.9437 29.332
lfingers 7.12502
lthumb 8.32471 59.148
rfemur -29.3179 -0.823244 17.1462
rtibia 49.7924
rfoot -21.6746 -11.7858
rtoes -9.69053
lfemur -26.3843 2.43989 -20.5585
ltibia 47.6912
lfoot -22.6898 7.83769
ltoes -15.5641
1684
root -0.475016 17.0812 -2.9649 2.25185 -0.0420401 2.18372
lowerback 15.5636 2.03068 -0.470579
upperback 7.39368 2.60584 0.328978
thorax -0.922409 1.28343 0.193112
lowerneck 1.2845 -4.87816 -6.94129
upperneck 1.22594 -6.61786 5.11777
head 0.598082 -3.33069 2.80131
rclavicle -2.5842e-014 7.15625e-015
rhumerus -345.744 22.7645 -432.056
rradius 94.4631
rwrist -29.2856
rhand -27.5391 21.157
rfingers 7.12502
rthumb -0.940794 -8.82072
lclavicle -2.5842e-014 7.15625e-015
lhumerus 12.7581 -29.677 77.1224
lradius 97.0603
lwrist 34.2085
lhand -18.3234 29.2599
lfingers 7.12502
lthumb 7.95822 59.0901
rfemur -29.181 -0.682227 17.366
rtibia 49.8038
rfoot -21.6728 -11.8451
rtoes -9.68081
lfemur -26.3132 2.58861 -20.3435
ltibia 47.86
lfoot -22.6663 7.90326
ltoes -16.0606
1685
root -0.472122 17.0757 -2.9638 2.14084 -0.192901 2.08887
lowerback 15.6429 2.0688 -0.37931
upperback 7.3669 2.66719 0.331376
thorax -0.988911 1.31574 0.130976
lowerneck 1.45246 -4.9003 -6.89934
upperneck 1.09613 -6.65493 5.14791
head 0.529632 -3.35025 2.80997
rclavicle 2.74323e-014 -1.59028e-014
rhumerus -345.594 22.735 -431.955
rradius 94.1709
rwrist -29.4249
rhand -27.4815 21.1842
rfingers 7.12502
rthumb -0.88518 -8.79375
lclavicle 2.74323e-014 -1.59028e-014
lhumerus 12.7033 -30.1026 76.8984
lradius 97.0308
lwrist 34.7626
lhand -19.378 28.8847
lfingers 7.12502
lthumb 6.94025 58.7509
rfemur -29.0938 -0.556589 17.4734
rtibia 49.8414
rfoot -21.5742 -11.9298
rtoes -10.2681
lfemur -26.2461 2.73823 -20.2384
ltibia 48.019
lfoot -22.7832 7.87116
ltoes -16.0279
1686
root -0.471632 17.0703 -2.96303 2.06048 -0.298227 2.05285
lowerback 15.7244 2.09005 -0.266199
upperback 7.39328 2.70806 0.267912
thorax -0.995851 1.33951 -0.00774714
lowerneck 1.31296 -4.93828 -6.86053
upperneck 1.09028 -6.6979 5.25172
head 0.557505 -3.36995 2.83299
rclavicle -8.54774e-015 1.86858e-014
rhumerus -345.477 22.7381 -431.763
rradius 94.2049
rwrist -29.9677
rhand -27.81 21.0529
rfingers 7.12502
rthumb -1.20236 -8.92344
lclavicle -8.54774e-015 1.86858e-014
lhumerus 12.8482 -30.4973 76.4832
lradius 97.1598
lwrist 35.0518
lhand -19.9486 29.3127
lfingers 7.12502
lthumb 6.38947 59.1963
rfemur -29.0499 -0.473482 17.5111
rtibia 49.906
rfoot -21.5916 -11.9107
rtoes -10.306
lfemur -26.2165 2.82116 -20.195
ltibia 48.1701
lfoot -22.8674 7.86121
ltoes -15.9946
1687
root -0.471151 17.0614 -2.96328 1.96706 -0.336192 2.04826
lowerback 15.7912 2.09545 -0.147828
upperback 7.42356 2.72871 0.176036
thorax -0.988903 1.35404 -0.175207
lowerneck 1.20521 -4.99439 -6.71101
upperneck 1.05168 -6.76431 5.26857
head 0.563234 -3.40113 2.80749
rclavicle 3.37934e-014 -1.31198e-014
rhumerus -345.653 22.603 -431.752
rradius 94.3137
rwrist -29.9368
rhand -27.766 20.9116
rfingers 7.12502
rthumb -1.15988 -9.06495
lclavicle 3.37934e-014 -1.31198e-014
lhumerus 12.9709 -30.8277 76.0257
lradius 97.294
lwrist 34.9901
lhand -19.6984 29.7913
lfingers 7.12502
lthumb 6.63095 59.6675
rfemur -29.0149 -0.488412 17.521
rtibia 50.0135
rfoot -21.672 -11.899
rtoes -10.0037
lfemur -26.1758 2.86064 -20.194
ltibia 48.2929
lfoot -22.9211 7.87579
ltoes -16.0927
1688
root -0.473417 17.0514 -2.96215 1.89212 -0.376064 2.08006
lowerback 15.7662 2.10509 -0.230102
upperback 7.4507 2.73002 0.178217
thorax -0.95094 1.35283 -0.125311
lowerneck 1.21498 -5.02947 -6.70346
upperneck 0.937458 -6.8092 5.27405
head 0.528056 -3.42323 2.80923
rclavicle 9.34288e-015 -3.18055e-015
rhumerus -345.773 22.5604 -431.629
rradius 94.2448
rwrist -29.5365
rhand -27.3637 20.9627
rfingers 7.12502
rthumb -0.771346 -9.01567
lclavicle 9.34288e-015 -3.18055e-015
lhumerus 12.9989 -30.9886 75.6496
lradius 97.2944
lwrist 34.6061
lhand -18.821 29.642
lfingers 7.12502
lthumb 7.47794 59.4899
rfemur -29.0054 -0.448897 17.4898
rtibia 50.1422
rfoot -21.7224 -11.9014
rtoes -9.9573
lfemur -26.1464 2.93813 -20.2183
ltibia 48.4084
lfoot -22.998 7.83507
ltoes -15.9639
1689
root -0.47587 17.0451 -2.96057 1.84388 -0.39453 2.11429
lowerback 15.6784 2.09271 -0.479866
upperback 7.5067 2.68309 0.307585
thorax -0.863107 1.32137 0.162169
lowerneck 1.17386 -5.0108 -6.84841
upperneck 0.739566 -6.77877 5.23513
head 0.474264 -3.40722 2.82498
rclavicle 6.55989e-015 -1.59028e-015
rhumerus -345.778 22.8615 -431.209
rradius 94.3363
rwrist -29.6733
rhand -27.394 21.0523
rfingers 7.12502
rthumb -0.800637 -8.92596
lclavicle 6.55989e-015 -1.59028e-015
lhumerus 13.0588 -31.0543 75.3767
lradius 97.3227
lwrist 34.6627
lhand -18.7366 29.3299
lfingers 7.12502
lthumb 7.55943 59.1748
rfemur -29.0209 -0.433402 17.4631
rtibia 50.2844
rfoot -21.7711 -11.9766
rtoes -10.5686
lfemur -26.14 2.97186 -20.2499
ltibia 48.514
lfoot -23.0093 7.8307
ltoes -15.9197
